 http://img443.imageshack.us/img443/3766/36222593.jpg

Release Name : Safe House 2012 CAM XviD-ZOMBiES
Rating : 6.8/10
Genre : Action, Crime, Mystery, Thriller
Stars : Denzel Washington, Ryan Reynolds, Robert Patrick, Vera Farmiga
Director : Daniel Espinosa
Writers : David Guggenheim
Release Date : 10 Feb 2012
Movie Runtime : 1 hr 55 mins
Rated Under : R
Movie Plot : A young CIA agent is tasked with looking after a fugitive in a safe house. But when the safe house is attacked, he finds himself on the run with his charge.
 
http://www.imdb.com/title/tt1599348/

Format                           : AVI
Format/Info                      : Audio Video Interleave
File size                        : 702 MiB
Duration                         : 1h 45mn
Overall bit rate                 : 934 Kbps
Writing application              : MEncoder SVN-r33823-4.1.2
Writing library                  : MPlayer

Video
ID                               : 0
Format                           : MPEG-4 Visual
Format profile                   : Advanced Simple@L5
Format settings, BVOP            : Yes
Format settings, QPel            : No
Format settings, GMC             : No warppoints
Format settings, Matrix          : Default (MPEG)
Codec ID                         : DX50
Codec ID/Hint                    : DivX 5
Duration                         : 1h 45mn
Bit rate                         : 794 Kbps
Width                            : 640 pixels
Height                           : 272 pixels
Display aspect ratio             : 2.35:1
Frame rate                       : 25.000 fps
Color space                      : YUV
Chroma subsampling               : 4:2:0
Bit depth                        : 8 bits
Scan type                        : Progressive
Bits/(Pixel*Frame)               : 0.182
Stream size                      : 597 MiB (85%)
Writing library                  : XviD 1.2.1 (UTC 2008-12-04)

Audio
ID                               : 1
Format                           : MPEG Audio
Format version                   : Version 1
Format profile                   : Layer 3
Mode                             : Joint stereo
Mode extension                   : MS Stereo
Codec ID                         : 55
Codec ID/Hint                    : MP3

Bit rate mode                    : Constant
Bit rate                         : 128 Kbps
Channel(s)                       : 2 channels
Sampling rate                    : 44.1 KHz
Bit depth                        : 16 bits
Stream size                      : 96.3 MiB (14%)
Alignment                        : Aligned on interleaves
Interleave, duration             : 26 ms (0.65 video frame)
Interleave, preload duration     : 522 ms
Writing library                  : LAME3.98.4

This is not the file that got leaked , other file had alittle OSS .

Okay , just another sexy encode of ZOMBiES , PROBLEM ??
Video : thanks Lum1x
Audio : OWN
Syncing was a lil bitch , but i guess we got it pretty perfect .
just enjoy the encode and keep the drama away  .

[img]http://img542.imageshack.us/img542/1017/c80ws.jpg[/img]
[img]http://img46.imageshack.us/img46/351/8llsa.jpg[/img]
[img]http://img204.imageshack.us/img204/4097/o4tae.jpg[/img]

